<svg xmlns="http://www.w3.org/2000/svg" viewBox="0 0 128 128" width="64" height="64">
  <defs>
    <linearGradient id="canvaGrad" x1="0%" y1="0%" x2="100%" y2="100%">
      <stop offset="0%" stop-color="#00C4CC"/>
      <stop offset="50%" stop-color="#5B52FF"/>
      <stop offset="100%" stop-color="#7D2AE8"/>
    </linearGradient>
  </defs>
  <rect width="128" height="128" rx="28" fill="url(#canvaGrad)"/>
  <path fill="#FFFFFF" d="M68.5 36 c-15.2 0-25.5 10.8-25.5 27.2 0 16.5 10.4 28.8 26.2 28.8 8.8 0 15.6-3.8 20.1-10.2 l-7.6-6.4 c-2.8 3.8-7.1 6.2-12.2 6.2-9.4 0-15.2-7.2-15.2-18.4 0-11 5.8-17.8 14.8-17.8 5.6 0 10.1 2.8 12.8 7.2 l7.8-6.2 c-4.8-6.6-11.8-10.4-21.2-10.4 z"/>
</svg>
