<svg xmlns="http://www.w3.org/2000/svg" viewBox="0 0 250 48" width="250" height="48">
  <defs>
    <linearGradient id="hLockGrad" x1="0%" y1="0%" x2="100%" y2="100%">
      <stop offset="0%" stop-color="#00F2FE"/>
      <stop offset="1" stop-color="#2563EB"/>
    </linearGradient>
    <linearGradient id="hPlayGrad" x1="0%" y1="0%" x2="100%" y2="100%">
      <stop offset="0%" stop-color="#00E676"/>
      <stop offset="1" stop-color="#00F2FE"/>
    </linearGradient>
  </defs>

  <!-- Isotipo Proporcional (Fondo Transparente Nativo con Escudo Integrado) -->
  <g transform="translate(4, 2) scale(0.44)">
    <!-- Base sutil -->
    <rect x="0" y="0" width="100" height="100" rx="22" fill="#0B0F19" stroke="rgba(255,255,255,0.08)" stroke-width="1.5"/>
    <!-- Shackle candado -->
    <path d="M34 38 V26 C34 17.16 41.16 10 50 10 C58.84 10 66 17.16 66 26 V38"
          fill="none" stroke="url(#hLockGrad)" stroke-width="7" stroke-linecap="round"/>
    <!-- Lock body -->
    <rect x="19" y="37" width="62" height="50" rx="12" fill="#111827" stroke="#2563EB" stroke-width="2"/>
    <!-- K vertical -->
    <rect x="29" y="47" width="6.5" height="30" rx="3.25" fill="#00F2FE"/>
    <!-- K diagonales con respiración -->
    <path d="M35 62 L51 48" fill="none" stroke="#00F2FE" stroke-width="6.5" stroke-linecap="round"/>
    <path d="M35 62 L50 75" fill="none" stroke="#00F2FE" stroke-width="6.5" stroke-linecap="round"/>
    <!-- Play -->
    <path d="M52 50.5 L73 62 L52 73.5 Z" fill="url(#hPlayGrad)"/>
  </g>

  <!-- Tipografía Vectorizada KAZU STORE (Curvas Nativas sin dependencia de fuentes) -->
  <g transform="translate(60, 8)">
    <!-- KAZU -->
    <!-- K -->
    <path d="M0 24 V2 H4.5 V12 L11.5 2 H17 L9 13.5 L17.5 24 H11.5 L4.5 14.5 V24 Z" fill="#F8FAFC"/>
    <!-- A -->
    <path d="M25 2 H30.5 L37 24 H32.2 L30.5 18.5 H25 L23.3 24 H18.5 Z M26.1 14.5 H29.4 L27.75 8.5 Z" fill="#F8FAFC"/>
    <!-- Z -->
    <path d="M39 2 H52 V6 L44 19.5 H52.5 V24 H38.5 V20 L46.5 6.5 H39 Z" fill="#F8FAFC"/>
    <!-- U -->
    <path d="M55 2 H59.5 V15 C59.5 19 62 20.5 65.5 20.5 C69 20.5 71.5 19 71.5 15 V2 H76 V15 C76 21.5 71.5 24.5 65.5 24.5 C59.5 24.5 55 21.5 55 15 Z" fill="#F8FAFC"/>

    <!-- STORE (Cyan High-Tech) -->
    <!-- S -->
    <path d="M82 19 C83 22.5 86 24.5 90 24.5 C94 24.5 97 22.5 97 19 C97 14 89.5 14.5 89.5 9.5 C89.5 7 91.5 5.8 94 5.8 C96.5 5.8 98 7 98.8 9 L102 7.5 C100.8 4.2 98 2 94 2 C89.5 2 85.5 4.5 85.5 9.5 C85.5 14.5 93 14 93 19 C93 21 91.5 22 89.5 22 C87 22 85.5 20.5 84.8 18 Z" fill="#00F2FE"/>
    <!-- T -->
    <path d="M103 2 H117 V6 H112 V24 H108 V6 H103 Z" fill="#00F2FE"/>
    <!-- O -->
    <path d="M119 13 C119 5.5 123.5 2 129.5 2 C135.5 2 140 5.5 140 13 C140 20.5 135.5 24 129.5 24 C123.5 24 119 20.5 119 13 Z M123.5 13 C123.5 18 126 20.2 129.5 20.2 C133 20.2 135.5 18 135.5 13 C135.5 8 133 5.8 129.5 5.8 C126 5.8 123.5 8 123.5 13 Z" fill="#00F2FE"/>
    <!-- R -->
    <path d="M143 2 H152 C156.5 2 159 4.5 159 8.5 C159 11.5 157 13.5 154 14.2 L160 24 H154.5 L149.2 15 H147 V24 H143 Z M147 6 V11.5 H151.5 C153.5 11.5 155 10.5 155 8.7 C155 7 153.5 6 151.5 6 Z" fill="#00F2FE"/>
    <!-- E -->
    <path d="M163 2 H176 V6 H167.5 V11 H174 V15 H167.5 V20 H176 V24 H163 Z" fill="#00F2FE"/>
  </g>

  <!-- Subtítulo de Garantía Esmeralda Oficial -->
  <g transform="translate(60, 39)">
    <circle cx="2" cy="-2.5" r="2" fill="#00E676"/>
    <text x="8" y="0" font-family="system-ui, -apple-system, sans-serif" font-size="8" font-weight="700" fill="#00E676" letter-spacing="1.4">GARANTÍA DE SERVICIO ACTIVO</text>
  </g>
</svg>